<?xml version="1.0" encoding="UTF-8" standalone="no"?> <svg width="24" height="24" fill="white" version="1.1" viewBox="0 0 16 16" xmlns="http://www.w3.org/2000/svg" xmlns:xlink="http://www.w3.org/1999/xlink"><path d="M13.4198,9.05127c-0.121576,-0.0405273 -0.255848,-0.0927734 -0.399884,-0.155762c0.697722,-1.04102 1.08345,-2.2334 1.08345,-3.39551c0,-3.18701 -1.68205,-5.5 -3.99982,-5.5c-0.678192,0 -2.05313,0 -2.99986,0.953125c-0.946734,-0.953125 -2.32167,-0.953125 -2.99986,-0.953125c-2.31776,0 -3.99982,2.31299 -3.99982,5.5c-2.22045e-16,1.17285 0.393048,2.37695 1.10298,3.4248c-0.121088,0.0424805 -0.236805,0.0776367 -0.345687,0.10498c-0.53562,0.133789 -0.861289,0.676758 -0.727506,1.21289c0.134759,0.535645 0.677703,0.862793 1.21283,0.727539c0.386213,-0.0966797 0.834434,-0.261719 1.31244,-0.485352c1.16743,0.921387 2.68445,1.51514 4.44462,1.51514c1.79826,0 3.34262,-0.619629 4.51981,-1.57568c0.485329,0.255371 0.89449,0.43457 1.16352,0.524414c0.525366,0.175781 1.09077,-0.108398 1.26508,-0.632324c0.174796,-0.523926 -0.108394,-1.09033 -0.632296,-1.26514Zm-11.3159,-3.55127c-8.88178e-16,-2.02783 0.84127,-3.5 1.99991,-3.5c1.31439,0 1.99991,0.0888672 1.99991,2c0,1.40967 -1.55803,2.98486 -3.11411,4.00586c-0.568821,-0.755859 -0.885701,-1.64307 -0.885701,-2.50586Zm4.99977,4.5c-0.959428,0 -1.8173,-0.239258 -2.5409,-0.63623c0.980424,-0.699219 1.9213,-1.57764 2.58631,-2.56396c0.704069,0.959473 1.67473,1.80811 2.62976,2.4873c-0.750453,0.442383 -1.65569,0.712891 -2.67517,0.712891Zm4.17998,-2.08398c-1.55803,-1.05029 -3.18003,-2.59424 -3.18003,-3.91602c0,-1.91113 0.685515,-2 1.99991,-2c1.15864,0 1.99991,1.47217 1.99991,3.5c1e-07,0.829102 -0.292467,1.68018 -0.819787,2.41602Z" transform="translate(0.896253, 2)"></path></svg>